<svg xmlns="http://www.w3.org/2000/svg" width="56.848" height="79.283" viewBox="0 0 56.848 79.283">
  <g id="Group_243" data-name="Group 243" transform="translate(-3009.12 -3663.416)" opacity="0.3">
    <circle id="Ellipse_52" data-name="Ellipse 52" cx="7.063" cy="7.063" r="7.063" transform="translate(3030.31 3663.416)" fill="#96a782"/>
    <circle id="Ellipse_53" data-name="Ellipse 53" cx="7.063" cy="7.063" r="7.063" transform="translate(3016.183 3670.479)" fill="#96a782"/>
    <circle id="Ellipse_54" data-name="Ellipse 54" cx="7.063" cy="7.063" r="7.063" transform="translate(3009.12 3684.941)" fill="#96a782"/>
    <circle id="Ellipse_55" data-name="Ellipse 55" cx="7.063" cy="7.063" r="7.063" transform="translate(3016.183 3699.403)" fill="#96a782"/>
    <circle id="Ellipse_56" data-name="Ellipse 56" cx="7.063" cy="7.063" r="7.063" transform="translate(3044.437 3670.479)" fill="#96a782"/>
    <circle id="Ellipse_57" data-name="Ellipse 57" cx="7.063" cy="7.063" r="7.063" transform="translate(3051.5 3684.941)" fill="#96a782"/>
    <circle id="Ellipse_58" data-name="Ellipse 58" cx="7.063" cy="7.063" r="7.063" transform="translate(3044.437 3699.403)" fill="#96a782"/>
    <circle id="Ellipse_59" data-name="Ellipse 59" cx="7.063" cy="7.063" r="7.063" transform="translate(3030.31 3706.467)" fill="#96a782"/>
    <path id="Path_607" data-name="Path 607" d="M3064.7,3734.665l1.265-.546-2.757-6.39,1.172-.686-4.6-7.868a9.116,9.116,0,0,0-15.735,9.21l4.6,7.867.6-.353,2.57,6.8,1.289-.487-2.653-7.019,3.271-1.914,2.926,6.3,1.25-.579-2.981-6.424,2.73-1.6,2.405,4.842,1.234-.614-2.446-4.926,3.167-1.854Z" fill="#96a782"/>
  </g>
</svg>
