<svg xmlns="http://www.w3.org/2000/svg" width="62.906" height="62.825" viewBox="0 0 62.906 62.825">
  <g id="Group_239" data-name="Group 239" transform="translate(-3299.04 -3672.703)">
    <path id="Path_587" data-name="Path 587" d="M3350.745,3704.665c-2.156,2.584-4.652,4.839-7.033,7.2-4.2,4.173-8.248,8.509-12.65,12.48a2.8,2.8,0,0,0-.954-1.227q-9.313-9.324-18.637-18.637a2.8,2.8,0,0,0-1.227-.953c2.155-2.585,4.652-4.84,7.033-7.2,4.2-4.173,8.247-8.51,12.65-12.481a2.8,2.8,0,0,0,.954,1.228q9.312,9.324,18.636,18.637A2.8,2.8,0,0,0,3350.745,3704.665Z" fill="#ebbaa5"/>
    <path id="Path_588" data-name="Path 588" d="M3350.745,3704.665a2.8,2.8,0,0,1-1.228-.953q-9.324-9.313-18.636-18.637a2.8,2.8,0,0,1-.954-1.228c2.894-3.059,5.613-6.306,9.081-8.765,5.479-3.884,13.792-2.762,18.148,1.554a14.708,14.708,0,0,1-.124,21.957C3354.883,3700.559,3352.837,3702.637,3350.745,3704.665Zm-11.35-21.319c-1.332-.053-1.93.405-1.979,1.513-.051,1.15.508,1.678,1.8,1.7a1.791,1.791,0,0,0,1.886-1.7C3341.182,3683.942,3340.558,3683.391,3339.4,3683.346Zm5.036,4.873c-.732-.039-1.69,1.108-1.7,2.033a1.4,1.4,0,0,0,1.361,1.611c1,.118,2.337-.886,2.284-1.715A3.489,3.489,0,0,0,3344.431,3688.219Zm6.815,6.981c-.044-1.166-.591-1.788-1.5-1.707a1.792,1.792,0,0,0-1.709,1.882c.018,1.293.541,1.85,1.693,1.8C3350.84,3697.129,3351.3,3696.533,3351.246,3695.2Zm-6.538-13.91a1.727,1.727,0,0,0,1.657-1.467c.081-.744-.976-1.731-1.917-1.791a1.46,1.46,0,0,0-1.719,1.5C3342.68,3680.595,3343.174,3681.176,3344.708,3681.29Zm10.222,6.93a1.937,1.937,0,0,0-1.578,1.7c-.035,1.339.42,1.911,1.543,1.942a1.444,1.444,0,0,0,1.663-1.558C3356.574,3689.423,3355.653,3688.242,3354.93,3688.22Zm-5.328-4.871a1.6,1.6,0,1,0,1.641,1.559A1.432,1.432,0,0,0,3349.6,3683.349Z" fill="#da9f81"/>
    <path id="Path_589" data-name="Path 589" d="M3310.244,3703.531a2.8,2.8,0,0,1,1.227.953q9.324,9.314,18.637,18.637a2.8,2.8,0,0,1,.954,1.227,102.556,102.556,0,0,1-7.622,7.742c-2.165,2.056-4.953,2.906-7.837,3.436a16.986,16.986,0,0,1-8.4-1.592,14.823,14.823,0,0,1-3.943-23.587C3305.549,3708.039,3307.736,3705.619,3310.244,3703.531Zm-.5,9.419c.026,1.175.558,1.817,1.457,1.756a1.822,1.822,0,0,0,1.754-1.841c0-1.327-.484-1.869-1.647-1.846C3310.174,3711.042,3309.713,3711.612,3309.741,3712.95Zm6.807,3.381c-.952.06-2.034,1.068-1.933,1.8a3.055,3.055,0,0,0,2.027,1.844c.724-.022,1.644-1.226,1.618-2.118A1.455,1.455,0,0,0,3316.548,3716.331Zm5.262,8.519c1.265-.028,1.834-.586,1.762-1.73-.068-1.1-.693-1.555-2.014-1.478a1.883,1.883,0,0,0-1.666,1.917C3320.02,3724.691,3320.844,3724.9,3321.81,3724.85Zm-14.175-6.51c.073-1.326-.38-1.942-1.475-2.01a1.461,1.461,0,0,0-1.729,1.493,2.367,2.367,0,0,0,1.561,2.156A1.82,1.82,0,0,0,3307.635,3718.34Zm8.943,8.615c-1.1-.064-2.1.683-1.931,1.577a1.955,1.955,0,0,0,1.8,1.63,1.477,1.477,0,0,0,1.816-1.4C3318.375,3727.623,3317.819,3727.027,3316.578,3726.955Zm-5.186-2.108a1.6,1.6,0,1,0-1.647-1.553A1.429,1.429,0,0,0,3311.392,3724.847Z" fill="#da9f81"/>
    <path id="Path_590" data-name="Path 590" d="M3339.4,3683.346c1.163.045,1.787.6,1.7,1.5a1.791,1.791,0,0,1-1.886,1.7c-1.289-.018-1.848-.546-1.8-1.7C3337.465,3683.751,3338.063,3683.293,3339.4,3683.346Z" fill="#c66e4f"/>
    <path id="Path_591" data-name="Path 591" d="M3344.431,3688.219a3.489,3.489,0,0,1,1.941,1.929c.053.829-1.283,1.833-2.284,1.715a1.4,1.4,0,0,1-1.361-1.611C3342.741,3689.327,3343.7,3688.18,3344.431,3688.219Z" fill="#c66e4f"/>
    <path id="Path_592" data-name="Path 592" d="M3351.246,3695.2c.051,1.333-.406,1.929-1.517,1.976-1.152.049-1.675-.508-1.693-1.8a1.792,1.792,0,0,1,1.709-1.882C3350.655,3693.412,3351.2,3694.034,3351.246,3695.2Z" fill="#c66e4f"/>
    <path id="Path_593" data-name="Path 593" d="M3344.708,3681.29c-1.534-.114-2.028-.7-1.979-1.754a1.46,1.46,0,0,1,1.719-1.5c.941.06,2,1.047,1.917,1.791A1.727,1.727,0,0,1,3344.708,3681.29Z" fill="#c66e4f"/>
    <path id="Path_594" data-name="Path 594" d="M3354.93,3688.22c.723.022,1.644,1.2,1.628,2.086a1.444,1.444,0,0,1-1.663,1.558c-1.123-.031-1.578-.6-1.543-1.942A1.937,1.937,0,0,1,3354.93,3688.22Z" fill="#c66e4f"/>
    <path id="Path_595" data-name="Path 595" d="M3349.6,3683.349a1.6,1.6,0,1,1-1.562,1.642A1.424,1.424,0,0,1,3349.6,3683.349Z" fill="#c66e4f"/>
    <path id="Path_596" data-name="Path 596" d="M3309.741,3712.95c-.028-1.338.433-1.908,1.564-1.931,1.163-.023,1.646.519,1.647,1.846a1.822,1.822,0,0,1-1.754,1.841C3310.3,3714.767,3309.767,3714.125,3309.741,3712.95Z" fill="#c66e4f"/>
    <path id="Path_597" data-name="Path 597" d="M3316.548,3716.331a1.455,1.455,0,0,1,1.712,1.528c.026.892-.894,2.1-1.618,2.118a3.055,3.055,0,0,1-2.027-1.844C3314.514,3717.4,3315.6,3716.391,3316.548,3716.331Z" fill="#c66e4f"/>
    <path id="Path_598" data-name="Path 598" d="M3321.81,3724.85c-.966.053-1.79-.159-1.918-1.291a1.883,1.883,0,0,1,1.666-1.917c1.321-.077,1.946.381,2.014,1.478C3323.644,3724.264,3323.075,3724.822,3321.81,3724.85Z" fill="#c66e4f"/>
    <path id="Path_599" data-name="Path 599" d="M3307.635,3718.34a1.82,1.82,0,0,1-1.643,1.639,2.367,2.367,0,0,1-1.561-2.156,1.461,1.461,0,0,1,1.729-1.493C3307.255,3716.4,3307.708,3717.014,3307.635,3718.34Z" fill="#c66e4f"/>
    <path id="Path_600" data-name="Path 600" d="M3316.578,3726.955c1.241.072,1.8.668,1.682,1.8a1.477,1.477,0,0,1-1.816,1.4,1.955,1.955,0,0,1-1.8-1.63C3314.473,3727.638,3315.481,3726.891,3316.578,3726.955Z" fill="#c66e4f"/>
    <path id="Path_601" data-name="Path 601" d="M3311.392,3724.847a1.6,1.6,0,1,1,1.557-1.646A1.425,1.425,0,0,1,3311.392,3724.847Z" fill="#c66e4f"/>
  </g>
</svg>
