<?xml version="1.0" encoding="utf-8"?>
<!-- Generator: Adobe Illustrator 25.2.1, SVG Export Plug-In . SVG Version: 6.00 Build 0)  -->
<svg version="1.1" id="Layer_1" xmlns="http://www.w3.org/2000/svg" xmlns:xlink="http://www.w3.org/1999/xlink" x="0px" y="0px"
	 viewBox="0 0 1080 1080" style="enable-background:new 0 0 1080 1080;" xml:space="preserve">
<style type="text/css">
	.st0{fill:#819069;}
	.st1{fill:#96A782;}
	.st2{fill:#92CB23;}
	.st3{fill:#FED97D;}
	.st4{fill:#CBD4DA;}
	.st5{fill:#CAD4DB;}
	.st6{fill:#9BACB8;}
	.st7{fill:#CCD6DD;}
	.st8{fill:#E0BC73;}
	.st9{fill:#77604F;}
	.st10{fill:#CE7C7A;}
	.st11{fill:#EBBAA5;}
	.st12{fill:#DA9F81;}
	.st13{fill:#C66E4F;}
	.st14{fill:#636776;}
	.st15{fill:#80868E;}
	.st16{fill:#A3A8B2;}
	.st17{fill:#D0C4AF;}
	.st18{fill:none;stroke:#B2A38A;stroke-width:15.6118;stroke-miterlimit:10;}
	.st19{fill:none;stroke:#604939;stroke-width:20.8157;stroke-miterlimit:10;}
	.st20{fill:#F2F2F2;}
	.st21{fill:#DFBE84;}
	.st22{fill:#E8C997;}
	.st23{fill:none;stroke:#636776;stroke-width:10.9082;stroke-linecap:round;stroke-linejoin:round;stroke-miterlimit:10;}
	.st24{fill:#E8E3D9;}
	.st25{fill:#EFD08D;}
	.st26{fill:#75AECC;}
	.st27{fill:#FFFFFF;}
	.st28{fill:#B7ACAE;}
	.st29{fill:#E4E3E0;}
	.st30{fill:#C8C0C2;}
	.st31{fill:#656B8D;}
	.st32{fill:#CDA585;}
	.st33{fill:none;stroke:#636776;stroke-width:10.9081;stroke-linecap:round;stroke-linejoin:round;stroke-miterlimit:10;}
	.st34{fill:#D6B59C;}
	.st35{fill:#E29591;}
	.st36{fill:#E7ADAB;}
	.st37{fill:#907A68;}
	.st38{opacity:0.3;}
</style>
<g class="st38">
	<path class="st11" d="M692.98,544.15c-16.29,19.52-35.14,36.56-53.13,54.41c-31.75,31.52-62.3,64.27-95.55,94.27
		c-1.03-4.15-4.43-6.5-7.2-9.27c-46.9-46.95-93.82-93.88-140.77-140.77c-2.77-2.77-5.12-6.17-9.27-7.2
		c16.28-19.52,35.14-36.56,53.13-54.41c31.75-31.52,62.29-64.28,95.55-94.27c1.03,4.15,4.43,6.5,7.2,9.27
		c46.9,46.95,93.82,93.88,140.77,140.77C686.47,539.72,688.82,543.12,692.98,544.15z"/>
	<path class="st12" d="M692.98,544.15c-4.15-1.03-6.5-4.43-9.27-7.2c-46.95-46.9-93.88-93.82-140.77-140.77
		c-2.77-2.77-6.17-5.12-7.2-9.27c21.86-23.11,42.4-47.64,68.6-66.21c41.39-29.34,104.18-20.87,137.08,11.73
		c27.11,26.87,37.73,58.11,36,94.96c-4.65,27.62-15.9,51.64-36.94,70.89C724.23,513.13,708.78,528.83,692.98,544.15z M607.24,383.11
		c-10.06-0.4-14.58,3.06-14.95,11.43c-0.38,8.69,3.84,12.67,13.58,12.81c7.83,0.11,13.53-5.04,14.24-12.88
		C620.74,387.62,616.03,383.46,607.24,383.11z M645.29,419.93c-5.53-0.3-12.77,8.36-12.87,15.35c-0.11,7.06,3.06,11.32,10.28,12.17
		c7.56,0.89,17.65-6.69,17.25-12.96C659.67,430.26,649.5,420.15,645.29,419.93z M696.76,472.66c-0.33-8.81-4.47-13.51-11.34-12.89
		c-7.84,0.7-13.01,6.4-12.91,14.21c0.13,9.77,4.08,13.97,12.79,13.6C693.69,487.22,697.15,482.73,696.76,472.66z M647.38,367.58
		c4.62,0.5,11.77-4.28,12.51-11.08c0.61-5.62-7.37-13.07-14.48-13.52c-7.84-0.5-12.63,3.67-12.98,11.35
		C632.06,362.34,635.79,366.72,647.38,367.58z M724.59,419.93c-5.14-0.16-11.77,6.99-11.92,12.86
		c-0.26,10.11,3.17,14.43,11.66,14.66c7.97,0.22,12.41-3.94,12.56-11.77C737.01,429.02,730.05,420.1,724.59,419.93z M684.34,383.14
		c-7.89,0.16-11.95,4.43-11.8,12.4c0.16,7.87,4.45,11.96,12.41,11.8c7.88-0.16,11.92-4.41,11.78-12.42
		C696.6,387.02,692.35,382.98,684.34,383.14z"/>
	<path class="st12" d="M387.05,535.59c4.15,1.03,6.5,4.43,9.27,7.2c46.95,46.9,93.88,93.82,140.77,140.77
		c2.77,2.77,6.17,5.12,7.2,9.27c-17.77,20.88-37.75,39.65-57.57,58.47c-16.35,15.53-37.41,21.95-59.19,25.95
		c-21.95,0.21-43.32-1.36-63.48-12.03c-70.93-37.55-80.35-127.26-29.78-178.16C351.59,569.64,368.1,551.36,387.05,535.59z
		 M383.25,606.73c0.19,8.88,4.21,13.73,11,13.27c7.69-0.52,13.25-6.36,13.25-13.9c-0.01-10.03-3.66-14.12-12.44-13.94
		C386.52,592.32,383.04,596.62,383.25,606.73z M434.67,632.27c-7.19,0.45-15.36,8.06-14.6,13.61c0.69,5.05,10.62,14.08,15.31,13.94
		c5.47-0.17,12.42-9.26,12.22-16C447.37,636.04,442.59,631.77,434.67,632.27z M474.42,696.62c9.56-0.22,13.85-4.43,13.31-13.07
		c-0.52-8.29-5.24-11.75-15.21-11.16c-6.74,0.4-13.37,7.61-12.59,14.48C460.9,695.41,467.12,697.02,474.42,696.62z M367.35,647.44
		c0.55-10.02-2.87-14.67-11.14-15.18c-7.92-0.49-12.68,3.62-13.06,11.27c-0.33,6.56,6.32,15.75,11.79,16.29
		C360.35,660.35,367.01,653.72,367.35,647.44z M434.89,712.52c-8.28-0.48-15.9,5.16-14.59,11.91c1.32,6.79,6.13,11.44,13.57,12.31
		c7.84,0.91,12.96-3.07,13.72-10.6C448.47,717.57,444.27,713.06,434.89,712.52z M395.73,696.59c7.91-0.18,11.95-4.45,11.76-12.43
		c-0.19-7.87-4.49-11.92-12.46-11.76c-7.87,0.16-11.9,4.44-11.74,12.46C383.44,692.76,387.71,696.78,395.73,696.59z"/>
	<path class="st13" d="M607.24,383.11c8.79,0.35,13.5,4.51,12.87,11.37c-0.72,7.84-6.42,12.99-14.24,12.88
		c-9.74-0.14-13.96-4.12-13.58-12.81C592.66,386.17,597.18,382.72,607.24,383.11z"/>
	<path class="st13" d="M645.29,419.93c4.22,0.23,14.39,10.33,14.66,14.57c0.4,6.26-9.69,13.85-17.25,12.96
		c-7.22-0.85-10.39-5.11-10.28-12.17C632.52,428.29,639.75,419.63,645.29,419.93z"/>
	<path class="st13" d="M696.76,472.66c0.38,10.07-3.07,14.57-11.46,14.92c-8.71,0.37-12.66-3.83-12.79-13.6
		c-0.11-7.81,5.07-13.51,12.91-14.21C692.3,459.15,696.43,463.85,696.76,472.66z"/>
	<path class="st13" d="M647.38,367.58c-11.59-0.86-15.32-5.25-14.95-13.25c0.35-7.68,5.14-11.85,12.98-11.35
		c7.11,0.45,15.09,7.91,14.48,13.52C659.15,363.3,651.99,368.08,647.38,367.58z"/>
	<path class="st13" d="M724.59,419.93c5.46,0.17,12.42,9.09,12.3,15.76c-0.15,7.83-4.59,11.99-12.56,11.77
		c-8.48-0.23-11.92-4.55-11.66-14.66C712.82,426.92,719.45,419.77,724.59,419.93z"/>
	<path class="st13" d="M684.34,383.14c8-0.16,12.26,3.88,12.39,11.78c0.14,8.01-3.9,12.27-11.78,12.42
		c-7.96,0.16-12.26-3.93-12.41-11.8C672.39,387.57,676.45,383.3,684.34,383.14z"/>
	<path class="st13" d="M383.25,606.73c-0.22-10.11,3.26-14.41,11.81-14.58c8.79-0.18,12.44,3.91,12.44,13.94
		c0,7.54-5.56,13.38-13.25,13.9C387.46,620.45,383.45,615.61,383.25,606.73z"/>
	<path class="st13" d="M434.67,632.27c7.92-0.5,12.7,3.77,12.93,11.54c0.2,6.74-6.75,15.83-12.22,16
		c-4.69,0.14-14.61-8.89-15.31-13.94C419.31,640.33,427.47,632.72,434.67,632.27z"/>
	<path class="st13" d="M474.42,696.62c-7.29,0.4-13.52-1.21-14.49-9.75c-0.78-6.88,5.85-14.09,12.59-14.48
		c9.98-0.59,14.7,2.88,15.21,11.16C488.27,692.19,483.97,696.4,474.42,696.62z"/>
	<path class="st13" d="M367.35,647.44c-0.34,6.27-7,12.91-12.42,12.38c-5.47-0.53-12.12-9.72-11.79-16.29
		c0.38-7.65,5.15-11.76,13.06-11.27C364.48,632.77,367.89,637.42,367.35,647.44z"/>
	<path class="st13" d="M434.89,712.52c9.37,0.54,13.58,5.05,12.71,13.63c-0.76,7.53-5.88,11.51-13.72,10.6
		c-7.44-0.87-12.25-5.52-13.57-12.31C418.99,717.67,426.61,712.04,434.89,712.52z"/>
	<path class="st13" d="M395.73,696.59c-8.02,0.18-12.28-3.84-12.44-11.73c-0.16-8.02,3.87-12.3,11.74-12.46
		c7.98-0.16,12.27,3.89,12.46,11.76C407.67,692.14,403.63,696.42,395.73,696.59z"/>
</g>
</svg>
