<svg xmlns="http://www.w3.org/2000/svg" width="65.781" height="92.016" viewBox="0 0 65.781 92.016">
  <g id="Group_285" data-name="Group 285" transform="translate(-1463.531 -3260.607)">
    <rect id="Rectangle_146" data-name="Rectangle 146" width="63.741" height="74.624" rx="1.895" transform="translate(1464.551 3276.979)" fill="#75aecc"/>
    <rect id="Rectangle_147" data-name="Rectangle 147" width="46.878" height="50.182" transform="translate(1520.865 3282.26) rotate(90)" fill="#fff"/>
    <rect id="Rectangle_148" data-name="Rectangle 148" width="63.741" height="74.624" rx="1.895" transform="translate(1464.551 3276.979)" stroke-width="2.04" stroke="#636776" stroke-linecap="round" stroke-linejoin="round" fill="none"/>
    <path id="Path_646" data-name="Path 646" d="M1506.673,3269.789h-2.089a8.162,8.162,0,1,0-16.324,0h-2.089a6.7,6.7,0,1,0,0,13.409h20.5a6.7,6.7,0,0,0,0-13.409Z" fill="#b7acae"/>
    <path id="Path_647" data-name="Path 647" d="M1506.673,3269.789h-2.089a8.162,8.162,0,1,0-16.324,0h-2.089a6.7,6.7,0,1,0,0,13.409h20.5a6.7,6.7,0,0,0,0-13.409Z" fill="none" stroke="#636776" stroke-linecap="round" stroke-linejoin="round" stroke-width="2.04"/>
    <circle id="Ellipse_57" data-name="Ellipse 57" cx="2.623" cy="2.623" r="2.623" transform="translate(1493.798 3265.416)" fill="#fff"/>
    <circle id="Ellipse_58" data-name="Ellipse 58" cx="2.623" cy="2.623" r="2.623" transform="translate(1493.798 3265.416)" stroke-width="2.04" stroke="#636776" stroke-linecap="round" stroke-linejoin="round" fill="none"/>
    <circle id="Ellipse_59" data-name="Ellipse 59" cx="5.15" cy="5.15" r="5.15" transform="translate(1476.071 3294.121)" fill="#efd08d"/>
    <circle id="Ellipse_60" data-name="Ellipse 60" cx="5.15" cy="5.15" r="5.15" transform="translate(1476.071 3311.625)" fill="#efd08d"/>
    <rect id="Rectangle_149" data-name="Rectangle 149" width="22.445" height="7.002" rx="1.293" transform="translate(1494.09 3295.343)" fill="#e4e3e0"/>
    <rect id="Rectangle_150" data-name="Rectangle 150" width="22.445" height="7.002" rx="1.293" transform="translate(1494.09 3311.679)" fill="#e4e3e0"/>
    <path id="Path_648" data-name="Path 648" d="M1479.515,3299.27l1.448,1.193a1.153,1.153,0,0,0,1.685-.233c1.8-2.62,6.633-9.334,9.207-10.036" fill="none" stroke="#636776" stroke-linecap="round" stroke-linejoin="round" stroke-width="2.04"/>
    <path id="Path_649" data-name="Path 649" d="M1479.515,3316.774l1.448,1.193a1.154,1.154,0,0,0,1.685-.233c1.8-2.62,6.633-9.334,9.207-10.037" fill="none" stroke="#636776" stroke-linecap="round" stroke-linejoin="round" stroke-width="2.04"/>
    <path id="Path_650" data-name="Path 650" d="M1507.329,3278.728h-21.814a1.749,1.749,0,1,1,0-3.5h21.814a1.749,1.749,0,0,1,0,3.5Z" fill="#c8c0c2"/>
  </g>
</svg>
