<svg xmlns="http://www.w3.org/2000/svg" width="56.592" height="67.963" viewBox="0 0 56.592 67.963">
  <g id="Group_238" data-name="Group 238" transform="translate(-3302.547 -3455.398)">
    <path id="Path_584" data-name="Path 584" d="M3337.7,3455.4c1.026,1.566.625,2.782-.575,4.186a16.217,16.217,0,0,0-4.05,10.714c-.269,1.545.207,3.81-2.195,3.76-2.614-.055-1.466-2.451-1.829-3.885a1.348,1.348,0,0,0-.255-1.384c.831-2.371,1.639-4.75,2.5-7.11.883-2.413,2.755-4.189,4.137-6.281Z" fill="#77604f"/>
    <path id="Path_585" data-name="Path 585" d="M3329.052,3470.173c.363,1.434-.785,3.83,1.829,3.885,2.4.05,1.926-2.215,2.195-3.76,4.067-.55,7.908-2.228,12.241-1.493,7.947,1.349,13.245,6.154,13.714,14.209.734,12.614-2.231,24.379-10.022,34.576-4.606,6.028-7.846,6.875-14.988,4.475a9.791,9.791,0,0,0-6.637.134c-6.31,2.252-9.662,1.364-13.978-3.827-6.042-7.266-8.963-15.849-10.267-25.064a35.15,35.15,0,0,1-.062-12.384c1.48-6.93,6.422-11.294,13.561-11.957C3320.8,3469.14,3324.853,3470.4,3329.052,3470.173Z" fill="#ce7c7a"/>
    <path id="Path_586" data-name="Path 586" d="M3329.052,3470.173c-4.2.228-8.254-1.033-12.414-1.206a37.09,37.09,0,0,1-10.05-7.952c-1.362-1.581-.945-2,.813-2.495,8.077-2.272,17.064,2,21.393,10.265A1.351,1.351,0,0,1,3329.052,3470.173Z" fill="#96a782"/>
  </g>
</svg>
