<?xml version="1.0" encoding="utf-8"?>
<!-- Generator: Adobe Illustrator 25.2.1, SVG Export Plug-In . SVG Version: 6.00 Build 0)  -->
<svg version="1.1" id="Layer_1" xmlns="http://www.w3.org/2000/svg" xmlns:xlink="http://www.w3.org/1999/xlink" x="0px" y="0px"
	 viewBox="0 0 1080 1080" style="enable-background:new 0 0 1080 1080;" xml:space="preserve">
<style type="text/css">
	.st0{fill:#819069;}
	.st1{fill:#96A782;}
	.st2{fill:#92CB23;}
	.st3{fill:#FED97D;}
	.st4{fill:#CBD4DA;}
	.st5{fill:#CAD4DB;}
	.st6{fill:#9BACB8;}
	.st7{fill:#CCD6DD;}
	.st8{fill:#E0BC73;}
	.st9{fill:#77604F;}
	.st10{fill:#CE7C7A;}
	.st11{fill:#EBBAA5;}
	.st12{fill:#DA9F81;}
	.st13{fill:#C66E4F;}
	.st14{fill:#636776;}
	.st15{fill:#80868E;}
	.st16{fill:#A3A8B2;}
	.st17{fill:#D0C4AF;}
	.st18{fill:none;stroke:#B2A38A;stroke-width:15.6118;stroke-miterlimit:10;}
	.st19{fill:none;stroke:#604939;stroke-width:20.8157;stroke-miterlimit:10;}
	.st20{fill:#F2F2F2;}
	.st21{fill:#DFBE84;}
	.st22{fill:#E8C997;}
	.st23{fill:none;stroke:#636776;stroke-width:10.9082;stroke-linecap:round;stroke-linejoin:round;stroke-miterlimit:10;}
	.st24{fill:#E8E3D9;}
	.st25{fill:#EFD08D;}
	.st26{fill:#75AECC;}
	.st27{fill:#FFFFFF;}
	.st28{fill:#B7ACAE;}
	.st29{fill:#E4E3E0;}
	.st30{fill:#C8C0C2;}
	.st31{fill:#656B8D;}
	.st32{fill:#CDA585;}
	.st33{fill:none;stroke:#636776;stroke-width:10.9081;stroke-linecap:round;stroke-linejoin:round;stroke-miterlimit:10;}
	.st34{fill:#D6B59C;}
	.st35{fill:#E29591;}
	.st36{fill:#E7ADAB;}
	.st37{fill:#907A68;}
	.st38{opacity:0.3;}
</style>
<g class="st38">
	<path class="st9" d="M591.8,283.32c7.75,11.83,4.72,21.02-4.34,31.62c-19.69,23.01-30.46,50.15-30.59,80.93
		c-2.03,11.67,1.56,28.78-16.58,28.4c-19.74-0.41-11.07-18.51-13.81-29.35c1.1-3.81,0.9-7.37-1.93-10.45
		c6.28-17.91,12.38-35.88,18.9-53.7c6.66-18.23,20.81-31.64,31.25-47.45C580.39,283.32,586.1,283.32,591.8,283.32z"/>
	<path class="st10" d="M526.47,394.92c2.74,10.84-5.93,28.93,13.81,29.35c18.14,0.38,14.55-16.73,16.58-28.4
		c30.72-4.16,59.74-16.83,92.47-11.28c60.02,10.18,100.04,46.48,103.59,107.33c5.55,95.28-16.85,184.14-75.7,261.17
		c-34.79,45.54-59.27,51.94-113.21,33.81c-16.94-5.69-33.37-4.97-50.13,1.01c-47.67,17.01-72.98,10.3-105.58-28.91
		c-45.64-54.89-67.71-119.72-77.55-189.32c-4.4-31.09-7.14-62.32-0.47-93.55c11.18-52.35,48.51-85.31,102.44-90.32
		C464.13,387.12,494.75,396.65,526.47,394.92z"/>
	<path class="st1" d="M526.47,394.92c-31.72,1.73-62.34-7.8-93.77-9.11c-28.39-16.12-54.36-35.02-75.91-60.06
		c-10.29-11.95-7.14-15.11,6.14-18.85c61.01-17.17,128.9,15.11,161.6,77.54C527.37,387.55,527.58,391.11,526.47,394.92z"/>
</g>
</svg>
