<?xml version="1.0" encoding="utf-8"?>
<!-- Generator: Adobe Illustrator 25.2.1, SVG Export Plug-In . SVG Version: 6.00 Build 0)  -->
<svg version="1.1" id="Layer_1" xmlns="http://www.w3.org/2000/svg" xmlns:xlink="http://www.w3.org/1999/xlink" x="0px" y="0px"
	 viewBox="0 0 1080 1080" style="enable-background:new 0 0 1080 1080;" xml:space="preserve">
<style type="text/css">
	.st0{fill:#819069;}
	.st1{fill:#96A782;}
	.st2{fill:#92CB23;}
	.st3{fill:#FED97D;}
	.st4{fill:#CBD4DA;}
	.st5{fill:#CAD4DB;}
	.st6{fill:#9BACB8;}
	.st7{fill:#CCD6DD;}
	.st8{fill:#E0BC73;}
	.st9{fill:#77604F;}
	.st10{fill:#CE7C7A;}
	.st11{fill:#EBBAA5;}
	.st12{fill:#DA9F81;}
	.st13{fill:#C66E4F;}
	.st14{fill:#636776;}
	.st15{fill:#80868E;}
	.st16{fill:#A3A8B2;}
	.st17{fill:#D0C4AF;}
	.st18{fill:none;stroke:#B2A38A;stroke-width:15.6118;stroke-miterlimit:10;}
	.st19{fill:none;stroke:#604939;stroke-width:20.8157;stroke-miterlimit:10;}
	.st20{fill:#F2F2F2;}
	.st21{fill:#DFBE84;}
	.st22{fill:#E8C997;}
	.st23{fill:none;stroke:#636776;stroke-width:10.9082;stroke-linecap:round;stroke-linejoin:round;stroke-miterlimit:10;}
	.st24{fill:#E8E3D9;}
	.st25{fill:#EFD08D;}
	.st26{fill:#75AECC;}
	.st27{fill:#FFFFFF;}
	.st28{fill:#B7ACAE;}
	.st29{fill:#E4E3E0;}
	.st30{fill:#C8C0C2;}
	.st31{fill:#656B8D;}
	.st32{fill:#CDA585;}
	.st33{fill:none;stroke:#636776;stroke-width:10.9081;stroke-linecap:round;stroke-linejoin:round;stroke-miterlimit:10;}
	.st34{fill:#D6B59C;}
	.st35{fill:#E29591;}
	.st36{fill:#E7ADAB;}
	.st37{fill:#907A68;}
	.st38{opacity:0.3;}
</style>
<g>
	<path class="st0" d="M830.36,562.04c10.09,4.93,8.39,11.11,2.19,18.16c-33.65,38.21-72.14,69.54-123.66,78.83
		c-51.77,9.33-94.95-10.68-130.49-46.67c-16.6-16.81-23.95-12.45-32.99,5.76c-7.13,14.36-9.85,29.1-10.36,44.71
		c-1.28,38.65-3,77.29-3.85,115.95c-0.3,13.73-5.81,20.4-19.63,21.47c-16.39,1.26-22.64-0.95-17.59-20.99
		c20.37-80.93,22.54-161.28-15.22-238.95c-7.33-15.08-14.05-20.91-33.09-15.65c-77.89,21.51-134.14-5.23-168.87-78.7
		c-24.22-51.24-34.84-105.73-34.26-162.4c1.45-1.25,2.9-2.5,4.35-3.75c3.3,0.17,6.6,0.34,9.89,0.5c0.6,5.58,4.54,8.67,8.24,12.39
		c21.99,22.11,50.57,35.14,74.42,54.68c54.5,44.66,102.62,95.22,143.33,152.78c10.25,26.98,26.35,51.27,34.69,79.32
		c3.66,12.3,13.55,23.24,27.17,6c5.23-6.61,11.92-12.06,17.94-18.04c4.75-1.79,9.64-3.29,14.24-5.42
		c42.47-19.68,85.64-28.13,133.51-22.15C750.99,544.97,790.15,555.91,830.36,562.04z"/>
	<path class="st1" d="M482.77,500.18c-40.71-57.56-88.83-108.13-143.33-152.78c-23.85-19.54-52.43-32.57-74.42-54.68
		c-3.7-3.72-7.64-6.81-8.24-12.39c61.14,0.83,119.26,14.15,171.4,46.62C488.85,364.74,507.67,427.3,482.77,500.18z"/>
	<path class="st1" d="M830.36,562.04c-40.21-6.13-79.37-17.07-120.05-22.15c-47.87-5.98-91.03,2.47-133.51,22.15
		c-4.6,2.13-9.48,3.63-14.24,5.42c24.72-83.71,84.09-112.42,163.68-78.03C765.7,506.47,801.23,529.85,830.36,562.04z"/>
	<path class="st2" d="M246.89,279.82c-1.45,1.25-2.9,2.5-4.35,3.75C242.02,280.03,243.44,278.75,246.89,279.82z"/>
</g>
</svg>
