<?xml version="1.0" encoding="utf-8"?>
<!-- Generator: Adobe Illustrator 25.2.1, SVG Export Plug-In . SVG Version: 6.00 Build 0)  -->
<svg version="1.1" id="Layer_1" xmlns="http://www.w3.org/2000/svg" xmlns:xlink="http://www.w3.org/1999/xlink" x="0px" y="0px"
	 viewBox="0 0 1080 1080" style="enable-background:new 0 0 1080 1080;" xml:space="preserve">
<style type="text/css">
	.st0{fill:#819069;}
	.st1{fill:#96A782;}
	.st2{fill:#92CB23;}
	.st3{fill:#FED97D;}
	.st4{fill:#CBD4DA;}
	.st5{fill:#CAD4DB;}
	.st6{fill:#9BACB8;}
	.st7{fill:#CCD6DD;}
	.st8{fill:#E0BC73;}
	.st9{fill:#77604F;}
	.st10{fill:#CE7C7A;}
	.st11{fill:#EBBAA5;}
	.st12{fill:#DA9F81;}
	.st13{fill:#C66E4F;}
	.st14{fill:#636776;}
	.st15{fill:#80868E;}
	.st16{fill:#A3A8B2;}
	.st17{fill:#D0C4AF;}
	.st18{fill:none;stroke:#B2A38A;stroke-width:15.6118;stroke-miterlimit:10;}
	.st19{fill:none;stroke:#604939;stroke-width:20.8157;stroke-miterlimit:10;}
	.st20{fill:#F2F2F2;}
	.st21{fill:#DFBE84;}
	.st22{fill:#E8C997;}
	.st23{fill:none;stroke:#636776;stroke-width:10.9082;stroke-linecap:round;stroke-linejoin:round;stroke-miterlimit:10;}
	.st24{fill:#E8E3D9;}
	.st25{fill:#EFD08D;}
	.st26{fill:#75AECC;}
	.st27{fill:#FFFFFF;}
	.st28{fill:#B7ACAE;}
	.st29{fill:#E4E3E0;}
	.st30{fill:#C8C0C2;}
	.st31{fill:#656B8D;}
	.st32{fill:#CDA585;}
	.st33{fill:none;stroke:#636776;stroke-width:10.9081;stroke-linecap:round;stroke-linejoin:round;stroke-miterlimit:10;}
	.st34{fill:#D6B59C;}
	.st35{fill:#E29591;}
	.st36{fill:#E7ADAB;}
	.st37{fill:#907A68;}
	.st38{opacity:0.3;}
</style>
<g>
	<path class="st17" d="M757.83,398.47l51.35,81.61c12.62,20.06,8.11,46.38-10.48,61.07c-31.92,25.22-79.27,63.88-105.38,91.12
		c-41.83,43.65-201.89,152.11-220.08,134.26c-18.19-17.85-12.73-41.65-12.73-41.65s-43.65,7.43-47.29-34.41
		c0,0-69.12-1.82-29.1-65.48c0,0-58.2-30.92,12.73-67.3s148.68-100.04,146.18-110.95c-2.5-10.91-135.27-85.49-89.8-127.32
		s123.68,95.67,189.16,91.49c35.47-2.27,61.86-12.91,78.61-22.19C733.83,381.62,750.01,386.06,757.83,398.47z"/>
	<path class="st18" d="M460.5,724.88c16.37-7.12,114.59-71.43,114.59-71.43"/>
	<line class="st18" x1="413.21" y1="690.48" x2="537.7" y2="617.72"/>
	<path class="st9" d="M322.87,403.58l-53.88,85.64c-9.39,14.92-6,34.49,7.87,45.36c31.42,24.61,85.24,67.96,113.73,97.69
		c41.83,43.65,201.89,152.11,220.08,134.26s12.73-41.65,12.73-41.65s43.65,7.43,47.29-34.41c0,0,69.12-1.82,29.1-65.48
		c0,0,58.2-30.92-12.73-67.3S538.38,457.66,540.88,446.75s135.27-85.49,89.8-127.32C585.21,277.6,507,415.1,441.52,410.92
		c-32.47-2.07-57.33-11.17-74.15-19.81C351.62,383.02,332.29,388.6,322.87,403.58z"/>
	<path class="st19" d="M623.4,724.88c-16.37-7.12-114.59-71.43-114.59-71.43"/>
	<line class="st19" x1="670.69" y1="690.48" x2="546.2" y2="617.72"/>
	<line class="st19" x1="699.79" y1="625" x2="574.29" y2="566.8"/>
</g>
</svg>
