<svg xmlns="http://www.w3.org/2000/svg" width="50.176" height="79.275" viewBox="0 0 50.176 79.275">
  <g id="Group_237" data-name="Group 237" transform="translate(-3159.789 -3449.766)">
    <path id="Path_577" data-name="Path 577" d="M3184.643,3449.766h0a24.978,24.978,0,0,1,24.977,20.554c1.193,6.768-.828,12.408-4.175,17.88-1.76,2.88-3.842,5.558-5.229,8.668a17.03,17.03,0,0,0-1.662,6.821c-3.86.27-7.586,1.585-11.494,1.5-.032-5.328.157-10.67-.176-15.979-.225-3.6.757-6.292,3.58-8.523a61.588,61.588,0,0,0,4.6-4.534,2.832,2.832,0,0,0,.5-3.426c-.37-.821-2.53-.53-3.636.41-.431.366-.81.793-1.211,1.194-1.364,1.363-2.711,2.741-4.094,4.085-1.709,1.661-1.737,1.665-3.434.007-1.866-1.822-3.646-3.735-5.565-5.5a2.588,2.588,0,0,0-3.595.032c-1.1,1.311-.367,2.18.617,3.126,2.206,2.122,4.278,4.386,6.531,6.455a5.023,5.023,0,0,1,1.705,4.17c-.1,6.348-.032,12.7-.028,19.049-3.859.014-7.757,2.032-11.615,2.045-.244-5.043-1.567-11.672-4.458-15.917-2.2-3.227-4.5-6.385-5.815-10.21-3.981-11.583,2.658-24.247,11.97-29.021l.263-.134A25.449,25.449,0,0,1,3184.643,3449.766Z" fill="#fed97d"/>
    <path id="Path_578" data-name="Path 578" d="M3187.06,3505.184c3.908.09,7.634-1.225,11.494-1.5,1.307.034,1.912.688,2.083,2.005.222,1.7-.83,2.288-2.095,2.789-1.947-.378-3.737.519-5.612.738-3.406.4-6.761,1.214-10.162,1.666-3.848.511-7.608,1.617-11.518,1.692-2.234-.952-2.676-1.907-1.522-3.533a7.406,7.406,0,0,1,1.512-1.249,45.138,45.138,0,0,0,12.319-1.857C3184.689,3505.516,3186.074,3506.274,3187.06,3505.184Z" fill="#cbd4da"/>
    <path id="Path_579" data-name="Path 579" d="M3198.562,3512.579c1.244.522,2.328,1.087,2.076,2.8-.192,1.3-.768,1.98-2.094,1.976-4.491.618-8.921,1.595-13.431,2.135-3.832.459-7.613,1.333-11.428,1.957-.9.147-1.059.651-1.077,1.376a17.056,17.056,0,0,0-2.083-1.037c-1.191-.411-1.4-1.259-1.343-2.362.069-1.357.7-2.069,2.079-2.069,7.267-1.158,14.566-2.153,21.778-3.587C3194.86,3513.409,3196.912,3513.789,3198.562,3512.579Z" fill="#cad4db"/>
    <path id="Path_580" data-name="Path 580" d="M3198.562,3512.579c-1.65,1.21-3.7.83-5.523,1.192-7.212,1.434-14.511,2.429-21.778,3.587l-.011-4.779c3.91-.075,7.67-1.181,11.518-1.692,3.4-.452,6.756-1.268,10.162-1.666,1.875-.219,3.665-1.116,5.612-.738Z" fill="#9bacb8"/>
    <path id="Path_581" data-name="Path 581" d="M3172.608,3522.826c.018-.725.18-1.229,1.077-1.376,3.815-.624,7.6-1.5,11.428-1.957,4.51-.54,8.94-1.517,13.431-2.135.005.334.016.669.013,1-.035,4.3-1.038,5.406-5.378,5.941q-8.277-.279-16.554,0C3175.16,3524.154,3173.629,3524.182,3172.608,3522.826Z" fill="#9bacb8"/>
    <path id="Path_582" data-name="Path 582" d="M3176.625,3524.3q8.277-.279,16.554,0c-1.07,3.4-4.339,3.659-6.954,4.514C3183.114,3529.833,3178.174,3527.232,3176.625,3524.3Z" fill="#ccd6dd"/>
    <path id="Path_583" data-name="Path 583" d="M3183.559,3505.94l-.7-.188c0-6.35-.069-12.7.028-19.049a5.023,5.023,0,0,0-1.705-4.17c-2.253-2.069-4.325-4.333-6.531-6.455-.984-.946-1.717-1.815-.617-3.126a2.588,2.588,0,0,1,3.595-.032c1.919,1.763,3.7,3.676,5.565,5.5,1.7,1.658,1.725,1.654,3.434-.007,1.383-1.344,2.73-2.722,4.094-4.085.4-.4.78-.828,1.211-1.194,1.106-.94,3.266-1.231,3.636-.41a2.832,2.832,0,0,1-.5,3.426,61.588,61.588,0,0,1-4.6,4.534c-2.823,2.231-3.805,4.918-3.58,8.523.333,5.309.144,10.651.176,15.979C3186.074,3506.274,3184.689,3505.516,3183.559,3505.94Z" fill="#e0bc73"/>
  </g>
</svg>
