<?xml version="1.0" encoding="utf-8"?>
<!-- Generator: Adobe Illustrator 25.2.1, SVG Export Plug-In . SVG Version: 6.00 Build 0)  -->
<svg version="1.1" id="Layer_1" xmlns="http://www.w3.org/2000/svg" xmlns:xlink="http://www.w3.org/1999/xlink" x="0px" y="0px"
	 viewBox="0 0 1080 1080" style="enable-background:new 0 0 1080 1080;" xml:space="preserve">
<style type="text/css">
	.st0{fill:#819069;}
	.st1{fill:#96A782;}
	.st2{fill:#92CB23;}
	.st3{fill:#FED97D;}
	.st4{fill:#CBD4DA;}
	.st5{fill:#CAD4DB;}
	.st6{fill:#9BACB8;}
	.st7{fill:#CCD6DD;}
	.st8{fill:#E0BC73;}
	.st9{fill:#77604F;}
	.st10{fill:#CE7C7A;}
	.st11{fill:#EBBAA5;}
	.st12{fill:#DA9F81;}
	.st13{fill:#C66E4F;}
	.st14{fill:#636776;}
	.st15{fill:#80868E;}
	.st16{fill:#A3A8B2;}
	.st17{fill:#D0C4AF;}
	.st18{fill:none;stroke:#B2A38A;stroke-width:15.6118;stroke-miterlimit:10;}
	.st19{fill:none;stroke:#604939;stroke-width:20.8157;stroke-miterlimit:10;}
	.st20{fill:#F2F2F2;}
	.st21{fill:#DFBE84;}
	.st22{fill:#E8C997;}
	.st23{fill:none;stroke:#636776;stroke-width:10.9082;stroke-linecap:round;stroke-linejoin:round;stroke-miterlimit:10;}
	.st24{fill:#E8E3D9;}
	.st25{fill:#EFD08D;}
	.st26{fill:#75AECC;}
	.st27{fill:#FFFFFF;}
	.st28{fill:#B7ACAE;}
	.st29{fill:#E4E3E0;}
	.st30{fill:#C8C0C2;}
	.st31{fill:#656B8D;}
	.st32{fill:#CDA585;}
	.st33{fill:none;stroke:#636776;stroke-width:10.9081;stroke-linecap:round;stroke-linejoin:round;stroke-miterlimit:10;}
	.st34{fill:#D6B59C;}
	.st35{fill:#E29591;}
	.st36{fill:#E7ADAB;}
	.st37{fill:#907A68;}
	.st38{opacity:0.3;}
</style>
<g>
	<path class="st3" d="M538.23,240.6L538.23,240.6c64.61-0.22,126.03,31.26,161,85.59c13.7,21.27,23.32,45.04,27.66,69.67
		c9.01,51.12-6.26,93.72-31.54,135.06c-13.3,21.75-29.02,41.98-39.5,65.47c-7.34,16.46-12.37,33.37-12.55,51.52
		c-29.16,2.04-57.3,11.97-86.82,11.29c-0.25-40.24,1.18-80.59-1.33-120.69c-1.71-27.23,5.72-47.53,27.04-64.38
		c12.68-10.02,23.11-22.86,34.74-34.25c7.93-7.77,7.74-17.09,3.8-25.87c-2.79-6.21-19.11-4-27.46,3.1
		c-3.25,2.76-6.12,5.99-9.15,9.02c-10.3,10.29-20.48,20.71-30.92,30.85c-12.91,12.55-13.12,12.58-25.94,0.06
		c-14.09-13.76-27.54-28.21-42.04-41.53c-8.33-7.66-21.36-6.66-27.15,0.24c-8.31,9.9-2.77,16.47,4.66,23.61
		c16.67,16.03,32.32,33.13,49.34,48.76c9.7,8.91,13.07,18.41,12.87,31.49c-0.73,47.95-0.24,95.93-0.21,143.89
		c-29.15,0.1-58.59,15.34-87.73,15.45c-1.84-38.09-11.83-88.16-33.67-120.23c-16.6-24.38-34-48.23-43.93-77.12
		c-30.07-87.5,20.08-183.15,90.42-219.21c0.66-0.34,1.32-0.68,1.98-1.01C478.57,247.76,508.2,240.7,538.23,240.6z"/>
	<path class="st4" d="M556.49,659.2c29.52,0.68,57.66-9.25,86.82-11.29c9.87,0.26,14.44,5.2,15.73,15.15
		c1.67,12.86-6.27,17.28-15.82,21.07c-14.71-2.86-28.23,3.92-42.39,5.57c-25.72,3.01-51.06,9.17-76.76,12.58
		c-29.07,3.86-57.47,12.21-87.01,12.78c-16.87-7.19-20.21-14.41-11.5-26.69c2.76-3.89,7.56-6.33,11.42-9.43
		c31.83,0.73,62.52-6.16,93.05-14.03C538.58,661.71,549.04,667.44,556.49,659.2z"/>
	<path class="st5" d="M643.37,715.06c9.4,3.94,17.59,8.21,15.68,21.17c-1.45,9.84-5.8,14.96-15.81,14.93
		c-33.92,4.67-67.39,12.05-101.45,16.13c-28.95,3.47-57.51,10.06-86.32,14.78c-6.77,1.11-8.01,4.91-8.14,10.39
		c-5.23-2.66-10.24-5.94-15.73-7.83c-9-3.1-10.57-9.51-10.14-17.84c0.52-10.24,5.29-15.62,15.7-15.63
		c54.89-8.74,110.02-16.26,164.5-27.09C615.41,721.33,630.91,724.2,643.37,715.06z"/>
	<path class="st6" d="M643.37,715.06c-12.46,9.14-27.96,6.27-41.72,9.01c-54.48,10.83-109.61,18.35-164.5,27.09
		c-0.03-12.03-0.06-24.06-0.09-36.09c29.53-0.57,57.94-8.92,87.01-12.78c25.69-3.41,51.03-9.58,76.76-12.58
		c14.17-1.66,27.69-8.43,42.39-5.57C643.27,694.43,643.32,704.74,643.37,715.06z"/>
	<path class="st6" d="M447.32,792.46c0.14-5.48,1.37-9.28,8.14-10.39c28.81-4.72,57.37-11.32,86.32-14.78
		c34.07-4.08,67.53-11.46,101.45-16.13c0.03,2.53,0.12,5.05,0.1,7.58c-0.26,32.47-7.84,40.84-40.62,44.88
		c-41.68-1.41-83.36-1.41-125.04,0C466.6,802.49,455.04,802.7,447.32,792.46z"/>
	<path class="st7" d="M477.67,803.61c41.68-1.41,83.36-1.41,125.04,0c-8.09,25.66-32.77,27.64-52.53,34.1
		C526.69,845.39,489.37,825.74,477.67,803.61z"/>
	<path class="st8" d="M530.04,664.91c-1.77-0.47-3.55-0.94-5.32-1.42c-0.03-47.97-0.52-95.94,0.21-143.89
		c0.2-13.08-3.17-22.58-12.87-31.49c-17.02-15.63-32.67-32.73-49.34-48.76c-7.43-7.14-12.97-13.71-4.66-23.61
		c5.79-6.9,18.82-7.9,27.15-0.24c14.49,13.32,27.94,27.77,42.04,41.53c12.82,12.52,13.03,12.49,25.94-0.06
		c10.44-10.15,20.62-20.56,30.92-30.85c3.03-3.03,5.89-6.25,9.15-9.02c8.36-7.1,24.67-9.3,27.46-3.1c3.95,8.78,4.13,18.11-3.8,25.87
		c-11.63,11.39-22.06,24.23-34.74,34.25c-21.32,16.85-28.74,37.15-27.04,64.38c2.51,40.1,1.08,80.45,1.33,120.69
		C549.04,667.44,538.58,661.71,530.04,664.91z"/>
</g>
</svg>
