<svg xmlns="http://www.w3.org/2000/svg" width="63.484" height="92.357" viewBox="0 0 63.484 92.357">
  <g id="Group_284" data-name="Group 284" transform="translate(-1248.32 -3266.531)">
    <rect id="Rectangle_143" data-name="Rectangle 143" width="55.146" height="66.462" transform="translate(1255.637 3267.551)" fill="#96a782"/>
    <path id="Path_640" data-name="Path 640" d="M1255.637,3267.551a6.3,6.3,0,0,0-6.3,6.3v66.383l7.078-6.218V3267.63A6.117,6.117,0,0,0,1255.637,3267.551Z" fill="#819069"/>
    <path id="Path_641" data-name="Path 641" d="M1255.637,3267.551a6.3,6.3,0,0,0-6.3,6.3v66.383l6.3-6.3v.079h55.146v-66.462Z" fill="none" stroke="#636776" stroke-linecap="round" stroke-linejoin="round" stroke-width="2.04"/>
    <path id="Path_642" data-name="Path 642" d="M1310.783,3334.013h-54.365a6.117,6.117,0,0,0-.781-.079,6.3,6.3,0,1,0,0,12.594h53.591C1306.45,3342.347,1308.929,3337.307,1310.783,3334.013Z" fill="#e8e3d9"/>
    <path id="Path_643" data-name="Path 643" d="M1310.783,3334.013l-55.146-.079a6.3,6.3,0,1,0,0,12.594h53.591C1306.45,3342.347,1308.929,3337.307,1310.783,3334.013Z" fill="none" stroke="#636776" stroke-linecap="round" stroke-linejoin="round" stroke-width="2.04"/>
    <rect id="Rectangle_144" data-name="Rectangle 144" width="44.599" height="56.259" rx="3.352" transform="translate(1261.131 3272.215)" fill="#819069"/>
    <path id="Path_644" data-name="Path 644" d="M1289.26,3340.231v17.636l5.484-3.556,5.1,3.17v-17.25Z" fill="#efd08d"/>
    <path id="Path_645" data-name="Path 645" d="M1289.26,3340.231v17.636l5.484-3.556,5.1,3.17v-17.25Z" fill="none" stroke="#636776" stroke-linecap="round" stroke-linejoin="round" stroke-width="2.04"/>
  </g>
</svg>
