<svg xmlns="http://www.w3.org/2000/svg" width="79.361" height="57.428" viewBox="0 0 79.361 57.428">
  <g id="Group_242" data-name="Group 242" transform="translate(-2856.525 -3674.969)" opacity="0.3">
    <path id="Path_603" data-name="Path 603" d="M2907.911,3724.779a28.654,28.654,0,0,1-20.922-12.3,2.629,2.629,0,0,1-.232-3.066,17.61,17.61,0,0,1,12.822-9.381,4.594,4.594,0,0,1,2.931.641c5.8,3.517,11.515,3.474,17.309-.023a4.584,4.584,0,0,1,2.939-.61,17.922,17.922,0,0,1,12.718,9.273,2.548,2.548,0,0,1-.211,3.048A29.409,29.409,0,0,1,2907.911,3724.779Z" fill="#80868e"/>
    <path id="Path_604" data-name="Path 604" d="M2911.166,3674.969a14.458,14.458,0,1,1-14.488,14.317A14.553,14.553,0,0,1,2911.166,3674.969Z" fill="#80868e"/>
    <path id="Path_605" data-name="Path 605" d="M2878.068,3732.239a28.65,28.65,0,0,1-20.922-12.294,2.629,2.629,0,0,1-.232-3.066,17.61,17.61,0,0,1,12.822-9.381,4.6,4.6,0,0,1,2.931.641c5.8,3.517,11.515,3.473,17.309-.023a4.584,4.584,0,0,1,2.939-.61,17.915,17.915,0,0,1,12.717,9.273,2.545,2.545,0,0,1-.21,3.047A29.405,29.405,0,0,1,2878.068,3732.239Z" fill="#a3a8b2"/>
    <path id="Path_606" data-name="Path 606" d="M2881.323,3682.43a14.458,14.458,0,1,1-14.488,14.317A14.552,14.552,0,0,1,2881.323,3682.43Z" fill="#a3a8b2"/>
  </g>
</svg>
