<svg xmlns="http://www.w3.org/2000/svg" width="58.053" height="100.125" viewBox="0 0 58.053 100.125">
  <g id="Group_15" data-name="Group 15" transform="translate(-130.535 -3260.352)">
    <rect id="Rectangle_13" data-name="Rectangle 13" width="56.012" height="79.924" transform="translate(131.555 3270.452)" fill="#dfbe84"/>
    <rect id="Rectangle_14" data-name="Rectangle 14" width="67.331" height="43.419" transform="translate(181.271 3276.749) rotate(90)" fill="#e8c997"/>
    <path id="Path_40" data-name="Path 40" d="M181.271,3306.52a5.344,5.344,0,0,0-7.11-5.044,7.868,7.868,0,0,0-4.938-4.47c-4.722-1.668-8.115-4.78-9.218-7.767a.409.409,0,0,0-.771,0c-1.1,2.987-4.5,6.1-9.219,7.767a7.861,7.861,0,0,0-4.952,4.507,5.344,5.344,0,0,0-7.211,5.007v37.559h43.419Z" fill="#dfbe84"/>
    <rect id="Rectangle_15" data-name="Rectangle 15" width="67.331" height="43.419" transform="translate(181.271 3276.749) rotate(90)" stroke-width="2.04" stroke="#636776" stroke-linecap="round" stroke-linejoin="round" fill="none"/>
    <rect id="Rectangle_16" data-name="Rectangle 16" width="56.012" height="79.924" transform="translate(131.555 3270.452)" stroke-width="2.04" stroke="#636776" stroke-linecap="round" stroke-linejoin="round" fill="none"/>
    <line id="Line_5" data-name="Line 5" y1="9.08" transform="translate(131.555 3261.372)" fill="none" stroke="#636776" stroke-linecap="round" stroke-linejoin="round" stroke-width="2.04"/>
    <line id="Line_6" data-name="Line 6" y1="9.08" transform="translate(140.891 3261.372)" fill="none" stroke="#636776" stroke-linecap="round" stroke-linejoin="round" stroke-width="2.04"/>
    <line id="Line_7" data-name="Line 7" y1="9.08" transform="translate(150.226 3261.372)" fill="none" stroke="#636776" stroke-linecap="round" stroke-linejoin="round" stroke-width="2.04"/>
    <line id="Line_8" data-name="Line 8" y1="9.08" transform="translate(159.562 3261.372)" fill="none" stroke="#636776" stroke-linecap="round" stroke-linejoin="round" stroke-width="2.04"/>
    <line id="Line_9" data-name="Line 9" y1="9.08" transform="translate(168.897 3261.372)" fill="none" stroke="#636776" stroke-linecap="round" stroke-linejoin="round" stroke-width="2.04"/>
    <line id="Line_10" data-name="Line 10" y1="9.08" transform="translate(178.232 3261.372)" fill="none" stroke="#636776" stroke-linecap="round" stroke-linejoin="round" stroke-width="2.04"/>
    <line id="Line_11" data-name="Line 11" y1="6.746" transform="translate(136.223 3263.706)" fill="none" stroke="#636776" stroke-linecap="round" stroke-linejoin="round" stroke-width="2.04"/>
    <line id="Line_12" data-name="Line 12" y1="6.746" transform="translate(145.559 3263.706)" fill="none" stroke="#636776" stroke-linecap="round" stroke-linejoin="round" stroke-width="2.04"/>
    <line id="Line_13" data-name="Line 13" y1="6.746" transform="translate(154.894 3263.706)" fill="none" stroke="#636776" stroke-linecap="round" stroke-linejoin="round" stroke-width="2.04"/>
    <line id="Line_14" data-name="Line 14" y1="6.746" transform="translate(164.229 3263.706)" fill="none" stroke="#636776" stroke-linecap="round" stroke-linejoin="round" stroke-width="2.04"/>
    <line id="Line_15" data-name="Line 15" y1="6.746" transform="translate(173.565 3263.706)" fill="none" stroke="#636776" stroke-linecap="round" stroke-linejoin="round" stroke-width="2.04"/>
    <line id="Line_16" data-name="Line 16" y1="6.746" transform="translate(182.9 3263.706)" fill="none" stroke="#636776" stroke-linecap="round" stroke-linejoin="round" stroke-width="2.04"/>
    <line id="Line_17" data-name="Line 17" y1="9.08" transform="translate(187.568 3261.372)" fill="none" stroke="#636776" stroke-linecap="round" stroke-linejoin="round" stroke-width="2.04"/>
    <line id="Line_18" data-name="Line 18" y2="9.08" transform="translate(131.555 3350.376)" fill="none" stroke="#636776" stroke-linecap="round" stroke-linejoin="round" stroke-width="2.04"/>
    <line id="Line_19" data-name="Line 19" y2="9.08" transform="translate(140.891 3350.376)" fill="none" stroke="#636776" stroke-linecap="round" stroke-linejoin="round" stroke-width="2.04"/>
    <line id="Line_20" data-name="Line 20" y2="9.08" transform="translate(150.226 3350.376)" fill="none" stroke="#636776" stroke-linecap="round" stroke-linejoin="round" stroke-width="2.04"/>
    <line id="Line_21" data-name="Line 21" y2="9.08" transform="translate(159.562 3350.376)" fill="none" stroke="#636776" stroke-linecap="round" stroke-linejoin="round" stroke-width="2.04"/>
    <line id="Line_22" data-name="Line 22" y2="9.08" transform="translate(168.897 3350.376)" fill="none" stroke="#636776" stroke-linecap="round" stroke-linejoin="round" stroke-width="2.04"/>
    <line id="Line_23" data-name="Line 23" y2="9.08" transform="translate(178.232 3350.376)" fill="none" stroke="#636776" stroke-linecap="round" stroke-linejoin="round" stroke-width="2.04"/>
    <line id="Line_24" data-name="Line 24" y2="6.746" transform="translate(136.223 3350.376)" fill="none" stroke="#636776" stroke-linecap="round" stroke-linejoin="round" stroke-width="2.04"/>
    <line id="Line_25" data-name="Line 25" y2="6.746" transform="translate(145.559 3350.376)" fill="none" stroke="#636776" stroke-linecap="round" stroke-linejoin="round" stroke-width="2.04"/>
    <line id="Line_26" data-name="Line 26" y2="6.746" transform="translate(154.894 3350.376)" fill="none" stroke="#636776" stroke-linecap="round" stroke-linejoin="round" stroke-width="2.04"/>
    <line id="Line_27" data-name="Line 27" y2="6.746" transform="translate(164.229 3350.376)" fill="none" stroke="#636776" stroke-linecap="round" stroke-linejoin="round" stroke-width="2.04"/>
    <line id="Line_28" data-name="Line 28" y2="6.746" transform="translate(173.565 3350.376)" fill="none" stroke="#636776" stroke-linecap="round" stroke-linejoin="round" stroke-width="2.04"/>
    <line id="Line_29" data-name="Line 29" y2="6.746" transform="translate(182.9 3350.376)" fill="none" stroke="#636776" stroke-linecap="round" stroke-linejoin="round" stroke-width="2.04"/>
    <line id="Line_30" data-name="Line 30" y2="9.08" transform="translate(187.568 3350.376)" fill="none" stroke="#636776" stroke-linecap="round" stroke-linejoin="round" stroke-width="2.04"/>
    <path id="Path_41" data-name="Path 41" d="M152.632,3323.272V3340.1H142.038v-16.824h2.007c0-1.815,3.29-3.284,3.29-3.284a9.026,9.026,0,0,1,2.612,1.815,2.288,2.288,0,0,1,.673,1.469Z" fill="#e8c997"/>
    <path id="Path_42" data-name="Path 42" d="M177.137,3323.272V3340.1H166.543v-16.824h2.006c0-1.815,3.291-3.284,3.291-3.284a9.027,9.027,0,0,1,2.611,1.815,2.288,2.288,0,0,1,.673,1.469Z" fill="#e8c997"/>
    <path id="Path_43" data-name="Path 43" d="M164.885,3323.272V3340.1h-10.6v-16.824H156.3c0-1.815,3.29-3.284,3.29-3.284a9.026,9.026,0,0,1,2.612,1.815,2.288,2.288,0,0,1,.673,1.469Z" fill="#e8c997"/>
    <g id="Group_13" data-name="Group 13">
      <path id="Path_44" data-name="Path 44" d="M151.751,3287.562a3.424,3.424,0,0,1-1.442,1.938,3.478,3.478,0,0,1-4.886-1.253,3.248,3.248,0,0,1,.873-4.3.162.162,0,0,1,.133-.037l.015,0a.167.167,0,0,1,.127.173,3.438,3.438,0,0,0,4.944,3.284.167.167,0,0,1,.207.048A.157.157,0,0,1,151.751,3287.562Z" fill="#dfbe84"/>
    </g>
    <g id="Group_14" data-name="Group 14">
      <path id="Path_45" data-name="Path 45" d="M167.371,3287.562a3.425,3.425,0,0,0,1.443,1.938,3.478,3.478,0,0,0,4.886-1.253,3.248,3.248,0,0,0-.874-4.3.161.161,0,0,0-.132-.037l-.015,0a.167.167,0,0,0-.128.173,3.437,3.437,0,0,1-4.943,3.284.167.167,0,0,0-.207.048A.157.157,0,0,0,167.371,3287.562Z" fill="#dfbe84"/>
    </g>
    <path id="Path_46" data-name="Path 46" d="M164.252,3310.414l1.943-1.943-1.943-1.943v-2.748H161.5l-1.943-1.943-1.943,1.943h-2.748v2.748l-1.943,1.943,1.943,1.943v2.748h2.748l1.943,1.943,1.943-1.943h2.748Z" fill="#e8c997"/>
  </g>
</svg>
