<svg xmlns="http://www.w3.org/2000/svg" width="58.053" height="100.125" viewBox="0 0 58.053 100.125">
  <g id="Group_283" data-name="Group 283" transform="translate(-1036.535 -3260.352)">
    <rect id="Rectangle_138" data-name="Rectangle 138" width="56.012" height="79.924" transform="translate(1037.555 3270.452)" fill="#dfbe84"/>
    <rect id="Rectangle_139" data-name="Rectangle 139" width="67.331" height="43.419" transform="translate(1087.271 3276.749) rotate(90)" fill="#e8c997"/>
    <path id="Path_633" data-name="Path 633" d="M1087.271,3306.52a5.344,5.344,0,0,0-7.11-5.044,7.868,7.868,0,0,0-4.938-4.47c-4.722-1.668-8.115-4.78-9.218-7.767a.409.409,0,0,0-.771,0c-1.1,2.987-4.5,6.1-9.219,7.767a7.861,7.861,0,0,0-4.952,4.507,5.344,5.344,0,0,0-7.211,5.007v37.559h43.419Z" fill="#dfbe84"/>
    <rect id="Rectangle_140" data-name="Rectangle 140" width="67.331" height="43.419" transform="translate(1087.271 3276.749) rotate(90)" stroke-width="2.04" stroke="#636776" stroke-linecap="round" stroke-linejoin="round" fill="none"/>
    <rect id="Rectangle_141" data-name="Rectangle 141" width="56.012" height="79.924" transform="translate(1037.555 3270.452)" stroke-width="2.04" stroke="#636776" stroke-linecap="round" stroke-linejoin="round" fill="none"/>
    <line id="Line_211" data-name="Line 211" y1="9.08" transform="translate(1037.555 3261.372)" fill="none" stroke="#636776" stroke-linecap="round" stroke-linejoin="round" stroke-width="2.04"/>
    <line id="Line_212" data-name="Line 212" y1="9.08" transform="translate(1046.891 3261.372)" fill="none" stroke="#636776" stroke-linecap="round" stroke-linejoin="round" stroke-width="2.04"/>
    <line id="Line_213" data-name="Line 213" y1="9.08" transform="translate(1056.226 3261.372)" fill="none" stroke="#636776" stroke-linecap="round" stroke-linejoin="round" stroke-width="2.04"/>
    <line id="Line_214" data-name="Line 214" y1="9.08" transform="translate(1065.562 3261.372)" fill="none" stroke="#636776" stroke-linecap="round" stroke-linejoin="round" stroke-width="2.04"/>
    <line id="Line_215" data-name="Line 215" y1="9.08" transform="translate(1074.897 3261.372)" fill="none" stroke="#636776" stroke-linecap="round" stroke-linejoin="round" stroke-width="2.04"/>
    <line id="Line_216" data-name="Line 216" y1="9.08" transform="translate(1084.233 3261.372)" fill="none" stroke="#636776" stroke-linecap="round" stroke-linejoin="round" stroke-width="2.04"/>
    <line id="Line_217" data-name="Line 217" y1="6.746" transform="translate(1042.223 3263.706)" fill="none" stroke="#636776" stroke-linecap="round" stroke-linejoin="round" stroke-width="2.04"/>
    <line id="Line_218" data-name="Line 218" y1="6.746" transform="translate(1051.559 3263.706)" fill="none" stroke="#636776" stroke-linecap="round" stroke-linejoin="round" stroke-width="2.04"/>
    <line id="Line_219" data-name="Line 219" y1="6.746" transform="translate(1060.894 3263.706)" fill="none" stroke="#636776" stroke-linecap="round" stroke-linejoin="round" stroke-width="2.04"/>
    <line id="Line_220" data-name="Line 220" y1="6.746" transform="translate(1070.229 3263.706)" fill="none" stroke="#636776" stroke-linecap="round" stroke-linejoin="round" stroke-width="2.04"/>
    <line id="Line_221" data-name="Line 221" y1="6.746" transform="translate(1079.565 3263.706)" fill="none" stroke="#636776" stroke-linecap="round" stroke-linejoin="round" stroke-width="2.04"/>
    <line id="Line_222" data-name="Line 222" y1="6.746" transform="translate(1088.9 3263.706)" fill="none" stroke="#636776" stroke-linecap="round" stroke-linejoin="round" stroke-width="2.04"/>
    <line id="Line_223" data-name="Line 223" y1="9.08" transform="translate(1093.568 3261.372)" fill="none" stroke="#636776" stroke-linecap="round" stroke-linejoin="round" stroke-width="2.04"/>
    <line id="Line_224" data-name="Line 224" y2="9.08" transform="translate(1037.555 3350.376)" fill="none" stroke="#636776" stroke-linecap="round" stroke-linejoin="round" stroke-width="2.04"/>
    <line id="Line_225" data-name="Line 225" y2="9.08" transform="translate(1046.891 3350.376)" fill="none" stroke="#636776" stroke-linecap="round" stroke-linejoin="round" stroke-width="2.04"/>
    <line id="Line_226" data-name="Line 226" y2="9.08" transform="translate(1056.226 3350.376)" fill="none" stroke="#636776" stroke-linecap="round" stroke-linejoin="round" stroke-width="2.04"/>
    <line id="Line_227" data-name="Line 227" y2="9.08" transform="translate(1065.562 3350.376)" fill="none" stroke="#636776" stroke-linecap="round" stroke-linejoin="round" stroke-width="2.04"/>
    <line id="Line_228" data-name="Line 228" y2="9.08" transform="translate(1074.897 3350.376)" fill="none" stroke="#636776" stroke-linecap="round" stroke-linejoin="round" stroke-width="2.04"/>
    <line id="Line_229" data-name="Line 229" y2="9.08" transform="translate(1084.233 3350.376)" fill="none" stroke="#636776" stroke-linecap="round" stroke-linejoin="round" stroke-width="2.04"/>
    <line id="Line_230" data-name="Line 230" y2="6.746" transform="translate(1042.223 3350.376)" fill="none" stroke="#636776" stroke-linecap="round" stroke-linejoin="round" stroke-width="2.04"/>
    <line id="Line_231" data-name="Line 231" y2="6.746" transform="translate(1051.559 3350.376)" fill="none" stroke="#636776" stroke-linecap="round" stroke-linejoin="round" stroke-width="2.04"/>
    <line id="Line_232" data-name="Line 232" y2="6.746" transform="translate(1060.894 3350.376)" fill="none" stroke="#636776" stroke-linecap="round" stroke-linejoin="round" stroke-width="2.04"/>
    <line id="Line_233" data-name="Line 233" y2="6.746" transform="translate(1070.229 3350.376)" fill="none" stroke="#636776" stroke-linecap="round" stroke-linejoin="round" stroke-width="2.04"/>
    <line id="Line_234" data-name="Line 234" y2="6.746" transform="translate(1079.565 3350.376)" fill="none" stroke="#636776" stroke-linecap="round" stroke-linejoin="round" stroke-width="2.04"/>
    <line id="Line_235" data-name="Line 235" y2="6.746" transform="translate(1088.9 3350.376)" fill="none" stroke="#636776" stroke-linecap="round" stroke-linejoin="round" stroke-width="2.04"/>
    <line id="Line_236" data-name="Line 236" y2="9.08" transform="translate(1093.568 3350.376)" fill="none" stroke="#636776" stroke-linecap="round" stroke-linejoin="round" stroke-width="2.04"/>
    <path id="Path_634" data-name="Path 634" d="M1058.632,3323.272V3340.1h-10.594v-16.824h2.007c0-1.815,3.29-3.284,3.29-3.284a9.026,9.026,0,0,1,2.612,1.815,2.288,2.288,0,0,1,.673,1.469Z" fill="#e8c997"/>
    <path id="Path_635" data-name="Path 635" d="M1083.137,3323.272V3340.1h-10.594v-16.824h2.006c0-1.815,3.291-3.284,3.291-3.284a9.028,9.028,0,0,1,2.611,1.815,2.288,2.288,0,0,1,.673,1.469Z" fill="#e8c997"/>
    <path id="Path_636" data-name="Path 636" d="M1070.885,3323.272V3340.1H1060.29v-16.824h2.007c0-1.815,3.29-3.284,3.29-3.284a9.026,9.026,0,0,1,2.612,1.815,2.288,2.288,0,0,1,.673,1.469Z" fill="#e8c997"/>
    <g id="Group_281" data-name="Group 281">
      <path id="Path_637" data-name="Path 637" d="M1057.751,3287.562a3.423,3.423,0,0,1-1.442,1.938,3.478,3.478,0,0,1-4.886-1.253,3.248,3.248,0,0,1,.873-4.3.162.162,0,0,1,.133-.037l.015,0a.167.167,0,0,1,.127.173,3.438,3.438,0,0,0,4.944,3.284.167.167,0,0,1,.207.048A.157.157,0,0,1,1057.751,3287.562Z" fill="#dfbe84"/>
    </g>
    <g id="Group_282" data-name="Group 282">
      <path id="Path_638" data-name="Path 638" d="M1073.371,3287.562a3.426,3.426,0,0,0,1.443,1.938,3.478,3.478,0,0,0,4.886-1.253,3.248,3.248,0,0,0-.874-4.3.161.161,0,0,0-.132-.037l-.015,0a.167.167,0,0,0-.128.173,3.437,3.437,0,0,1-4.943,3.284.167.167,0,0,0-.207.048A.157.157,0,0,0,1073.371,3287.562Z" fill="#dfbe84"/>
    </g>
    <path id="Path_639" data-name="Path 639" d="M1070.252,3310.414l1.943-1.943-1.943-1.943v-2.748H1067.5l-1.943-1.943-1.943,1.943h-2.748v2.748l-1.943,1.943,1.943,1.943v2.748h2.748l1.943,1.943,1.943-1.943h2.748Z" fill="#e8c997"/>
  </g>
</svg>
