<?xml version="1.0" encoding="utf-8"?>
<!-- Generator: Adobe Illustrator 25.2.1, SVG Export Plug-In . SVG Version: 6.00 Build 0)  -->
<svg version="1.1" id="Layer_1" xmlns="http://www.w3.org/2000/svg" xmlns:xlink="http://www.w3.org/1999/xlink" x="0px" y="0px"
	 viewBox="0 0 1080 1080" style="enable-background:new 0 0 1080 1080;" xml:space="preserve">
<style type="text/css">
	.st0{fill:#819069;}
	.st1{fill:#96A782;}
	.st2{fill:#92CB23;}
	.st3{fill:#FED97D;}
	.st4{fill:#CBD4DA;}
	.st5{fill:#CAD4DB;}
	.st6{fill:#9BACB8;}
	.st7{fill:#CCD6DD;}
	.st8{fill:#E0BC73;}
	.st9{fill:#77604F;}
	.st10{fill:#CE7C7A;}
	.st11{fill:#EBBAA5;}
	.st12{fill:#DA9F81;}
	.st13{fill:#C66E4F;}
	.st14{fill:#636776;}
	.st15{fill:#80868E;}
	.st16{fill:#A3A8B2;}
	.st17{fill:#D0C4AF;}
	.st18{fill:none;stroke:#B2A38A;stroke-width:15.6118;stroke-miterlimit:10;}
	.st19{fill:none;stroke:#604939;stroke-width:20.8157;stroke-miterlimit:10;}
	.st20{fill:#F2F2F2;}
	.st21{fill:#DFBE84;}
	.st22{fill:#E8C997;}
	.st23{fill:none;stroke:#636776;stroke-width:10.9082;stroke-linecap:round;stroke-linejoin:round;stroke-miterlimit:10;}
	.st24{fill:#E8E3D9;}
	.st25{fill:#EFD08D;}
	.st26{fill:#75AECC;}
	.st27{fill:#FFFFFF;}
	.st28{fill:#B7ACAE;}
	.st29{fill:#E4E3E0;}
	.st30{fill:#C8C0C2;}
	.st31{fill:#656B8D;}
	.st32{fill:#CDA585;}
	.st33{fill:none;stroke:#636776;stroke-width:10.9081;stroke-linecap:round;stroke-linejoin:round;stroke-miterlimit:10;}
	.st34{fill:#D6B59C;}
	.st35{fill:#E29591;}
	.st36{fill:#E7ADAB;}
	.st37{fill:#907A68;}
	.st38{opacity:0.3;}
</style>
<g>
	<path class="st15" d="M628.41,699.35c-61.14-6.25-119.85-37.15-158.03-92.86c-5.37-7.84-6.35-14.68-1.75-23.16
		c21.15-38.95,53.42-62.86,96.85-70.86c6.92-1.28,15.95,1.09,22.14,4.84c43.83,26.56,86.98,26.24,130.74-0.17
		c6.18-3.73,15.26-5.92,22.2-4.61c42.88,8.07,74.53,32.16,96.06,70.04c4.86,8.55,3.78,15.23-1.59,23.02
		C786.59,675.87,705.58,707.24,628.41,699.35z"/>
	<path class="st15" d="M653,323.11c59.94,0.15,109.24,50.03,108.85,110.13c-0.38,59.22-50.13,108.44-109.43,108.28
		c-59.84-0.16-109.32-50.28-108.85-110.27C544.03,371.95,593.6,322.96,653,323.11z"/>
	<path class="st16" d="M402.99,755.7c-61.14-6.25-119.85-37.15-158.03-92.86c-5.37-7.84-6.35-14.68-1.75-23.16
		c21.15-38.95,53.42-62.86,96.85-70.86c6.92-1.28,15.95,1.09,22.14,4.84c43.83,26.56,86.98,26.24,130.74-0.17
		c6.18-3.73,15.26-5.92,22.2-4.61c42.88,8.07,74.53,32.16,96.06,70.04c4.86,8.55,3.78,15.23-1.59,23.02
		C561.17,732.22,480.16,763.59,402.99,755.7z"/>
	<path class="st16" d="M427.58,379.46c59.94,0.15,109.24,50.03,108.85,110.13c-0.38,59.22-50.13,108.44-109.43,108.28
		c-59.84-0.16-109.32-50.28-108.85-110.27C318.61,428.31,368.18,379.32,427.58,379.46z"/>
</g>
</svg>
