<svg xmlns="http://www.w3.org/2000/svg" width="63.483" height="92.357" viewBox="0 0 63.483 92.357">
  <g id="Group_16" data-name="Group 16" transform="translate(-342.32 -3266.531)">
    <rect id="Rectangle_18" data-name="Rectangle 18" width="55.146" height="66.462" transform="translate(349.637 3267.551)" fill="#96a782"/>
    <path id="Path_47" data-name="Path 47" d="M349.637,3267.551a6.3,6.3,0,0,0-6.3,6.3v66.383l7.078-6.218V3267.63A6.12,6.12,0,0,0,349.637,3267.551Z" fill="#819069"/>
    <path id="Path_48" data-name="Path 48" d="M349.637,3267.551a6.3,6.3,0,0,0-6.3,6.3v66.383l6.3-6.3v.079h55.146v-66.462Z" fill="none" stroke="#636776" stroke-linecap="round" stroke-linejoin="round" stroke-width="2.04"/>
    <path id="Path_49" data-name="Path 49" d="M404.783,3334.013H350.418a6.12,6.12,0,0,0-.781-.079,6.3,6.3,0,1,0,0,12.594h53.591C400.45,3342.347,402.929,3337.307,404.783,3334.013Z" fill="#e8e3d9"/>
    <path id="Path_50" data-name="Path 50" d="M404.783,3334.013l-55.146-.079a6.3,6.3,0,1,0,0,12.594h53.591C400.45,3342.347,402.929,3337.307,404.783,3334.013Z" fill="none" stroke="#636776" stroke-linecap="round" stroke-linejoin="round" stroke-width="2.04"/>
    <rect id="Rectangle_19" data-name="Rectangle 19" width="44.599" height="56.259" rx="3.352" transform="translate(355.131 3272.215)" fill="#819069"/>
    <path id="Path_51" data-name="Path 51" d="M383.26,3340.231v17.636l5.484-3.556,5.1,3.17v-17.25Z" fill="#efd08d"/>
    <path id="Path_52" data-name="Path 52" d="M383.26,3340.231v17.636l5.484-3.556,5.1,3.17v-17.25Z" fill="none" stroke="#636776" stroke-linecap="round" stroke-linejoin="round" stroke-width="2.04"/>
  </g>
</svg>
