<svg xmlns="http://www.w3.org/2000/svg" viewBox="0 0 56.85 79.28"><defs><style>.cls-1{opacity:0.3;}.cls-2{fill:#736357;}</style></defs><g id="Layer_2" data-name="Layer 2"><g id="Layer_1-2" data-name="Layer 1"><g class="cls-1"><circle class="cls-2" cx="28.25" cy="7.06" r="7.06"/><circle class="cls-2" cx="14.13" cy="14.13" r="7.06"/><circle class="cls-2" cx="7.06" cy="28.59" r="7.06"/><circle class="cls-2" cx="14.13" cy="43.05" r="7.06"/><circle class="cls-2" cx="42.38" cy="14.13" r="7.06"/><circle class="cls-2" cx="49.44" cy="28.59" r="7.06"/><circle class="cls-2" cx="42.38" cy="43.05" r="7.06"/><circle class="cls-2" cx="28.25" cy="50.11" r="7.06"/><path class="cls-2" d="M55.58,71.25l1.27-.55-2.76-6.39,1.17-.68-4.6-7.87A9.12,9.12,0,0,0,34.92,65l4.61,7.87.6-.36,2.57,6.8L44,78.8l-2.65-7,3.27-1.92,2.92,6.31,1.25-.58-3-6.43,2.73-1.59,2.41,4.84,1.23-.62-2.44-4.92L52.89,65Z"/></g></g></g></svg>