<svg id="Layer_1" data-name="Layer 1" xmlns="http://www.w3.org/2000/svg" viewBox="0 0 1080 1080"><defs><style>.cls-1{opacity:0.3;}.cls-2{fill:#736357;}</style></defs><g class="cls-1"><circle class="cls-2" cx="538.71" cy="293.92" r="53.35"/><circle class="cls-2" cx="432" cy="347.27" r="53.35"/><circle class="cls-2" cx="378.65" cy="456.51" r="53.35"/><circle class="cls-2" cx="432" cy="565.75" r="53.35"/><circle class="cls-2" cx="645.42" cy="347.27" r="53.35"/><circle class="cls-2" cx="698.77" cy="456.51" r="53.35"/><circle class="cls-2" cx="645.42" cy="565.75" r="53.35"/><circle class="cls-2" cx="538.71" cy="619.1" r="53.35"/><path class="cls-2" d="M745.15,778.75l9.55-4.13-20.82-48.27,8.85-5.18L708,661.74a68.86,68.86,0,0,0-118.86,69.57l34.79,59.43,4.55-2.67,19.41,51.36,9.74-3.68-20-53,24.71-14.46,22.1,47.62,9.44-4.38L671.27,763l20.63-12.08,18.16,36.58,9.32-4.64L700.9,745.65l23.93-14Z"/></g></svg>