<?xml version="1.0" encoding="utf-8"?>
<!-- Generator: Adobe Illustrator 25.2.1, SVG Export Plug-In . SVG Version: 6.00 Build 0)  -->
<svg version="1.1" id="Layer_1" xmlns="http://www.w3.org/2000/svg" xmlns:xlink="http://www.w3.org/1999/xlink" x="0px" y="0px"
	 viewBox="0 0 1080 1080" style="enable-background:new 0 0 1080 1080;" xml:space="preserve">
<style type="text/css">
	.st0{fill:#819069;}
	.st1{fill:#96A782;}
	.st2{fill:#92CB23;}
	.st3{fill:#FED97D;}
	.st4{fill:#CBD4DA;}
	.st5{fill:#CAD4DB;}
	.st6{fill:#9BACB8;}
	.st7{fill:#CCD6DD;}
	.st8{fill:#E0BC73;}
	.st9{fill:#77604F;}
	.st10{fill:#CE7C7A;}
	.st11{fill:#EBBAA5;}
	.st12{fill:#DA9F81;}
	.st13{fill:#C66E4F;}
	.st14{fill:#636776;}
	.st15{fill:#80868E;}
	.st16{fill:#A3A8B2;}
	.st17{fill:#D0C4AF;}
	.st18{fill:none;stroke:#B2A38A;stroke-width:15.6118;stroke-miterlimit:10;}
	.st19{fill:none;stroke:#604939;stroke-width:20.8157;stroke-miterlimit:10;}
	.st20{fill:#F2F2F2;}
	.st21{fill:#DFBE84;}
	.st22{fill:#E8C997;}
	.st23{fill:none;stroke:#636776;stroke-width:10.9082;stroke-linecap:round;stroke-linejoin:round;stroke-miterlimit:10;}
	.st24{fill:#E8E3D9;}
	.st25{fill:#EFD08D;}
	.st26{fill:#75AECC;}
	.st27{fill:#FFFFFF;}
	.st28{fill:#B7ACAE;}
	.st29{fill:#E4E3E0;}
	.st30{fill:#C8C0C2;}
	.st31{fill:#656B8D;}
	.st32{fill:#CDA585;}
	.st33{fill:none;stroke:#636776;stroke-width:10.9081;stroke-linecap:round;stroke-linejoin:round;stroke-miterlimit:10;}
	.st34{fill:#D6B59C;}
	.st35{fill:#E29591;}
	.st36{fill:#E7ADAB;}
	.st37{fill:#907A68;}
	.st38{opacity:0.3;}
</style>
<g>
	<circle class="st1" cx="538.71" cy="293.92" r="53.35"/>
	<circle class="st1" cx="432" cy="347.27" r="53.35"/>
	<circle class="st1" cx="378.65" cy="456.51" r="53.35"/>
	<circle class="st1" cx="432" cy="565.75" r="53.35"/>
	<circle class="st1" cx="645.42" cy="347.27" r="53.35"/>
	<circle class="st1" cx="698.77" cy="456.51" r="53.35"/>
	<circle class="st1" cx="645.42" cy="565.75" r="53.35"/>
	<circle class="st1" cx="538.71" cy="619.1" r="53.35"/>
	<path class="st1" d="M745.15,778.75l9.55-4.13l-20.82-48.27l8.85-5.18l-34.78-59.43c-19.21-32.82-61.39-43.86-94.21-24.65
		c-32.82,19.21-43.85,61.39-24.65,94.21l34.78,59.43l4.55-2.67l19.41,51.36l9.74-3.68l-20.04-53.02l24.7-14.46l22.1,47.62l9.44-4.38
		L671.27,763l20.63-12.07l18.17,36.57l9.32-4.63l-18.48-37.21l23.93-14L745.15,778.75z"/>
</g>
</svg>
