<svg xmlns="http://www.w3.org/2000/svg" width="78.79" height="68.987" viewBox="0 0 78.79 68.987">
  <g id="Group_236" data-name="Group 236" transform="translate(-3005.302 -3456.042)" opacity="0.3">
    <path id="Path_573" data-name="Path 573" d="M3083.138,3493.453c1.336.653,1.111,1.471.289,2.4-4.454,5.059-9.55,9.207-16.372,10.437-6.854,1.235-12.569-1.414-17.275-6.178-2.2-2.226-3.17-1.648-4.367.762a13.989,13.989,0,0,0-1.372,5.92c-.169,5.117-.4,10.232-.51,15.351-.04,1.817-.77,2.7-2.6,2.842-2.17.167-3-.126-2.329-2.779,2.7-10.714,2.984-21.352-2.015-31.635-.97-2-1.861-2.768-4.38-2.072-10.313,2.848-17.759-.693-22.357-10.419a48.533,48.533,0,0,1-4.536-21.5l.576-.495,1.31.066a2.8,2.8,0,0,0,1.091,1.641c2.91,2.927,6.694,4.651,9.852,7.239a103.015,103.015,0,0,1,18.976,20.226c1.356,3.572,3.488,6.788,4.593,10.5.484,1.628,1.793,3.077,3.6.8a27.99,27.99,0,0,1,2.375-2.388c.629-.237,1.276-.436,1.884-.718a31.5,31.5,0,0,1,17.675-2.932C3072.63,3491.193,3077.814,3492.641,3083.138,3493.453Z" fill="#04cb2c"/>
    <path id="Path_574" data-name="Path 574" d="M3037.121,3485.263a103.015,103.015,0,0,0-18.976-20.226c-3.158-2.588-6.942-4.312-9.852-7.239a2.8,2.8,0,0,1-1.091-1.641c8.094.111,15.788,1.873,22.691,6.172C3037.926,3467.333,3040.418,3475.615,3037.121,3485.263Z" fill="#04cb2c"/>
    <path id="Path_575" data-name="Path 575" d="M3083.138,3493.453c-5.324-.812-10.508-2.26-15.893-2.932a31.5,31.5,0,0,0-17.675,2.932c-.608.282-1.255.481-1.884.718,3.272-11.083,11.132-14.883,21.67-10.331A39.267,39.267,0,0,1,3083.138,3493.453Z" fill="#04cb2c"/>
    <path id="Path_576" data-name="Path 576" d="M3005.892,3456.091l-.576.495C3005.248,3456.119,3005.436,3455.949,3005.892,3456.091Z" fill="#04cb2c"/>
  </g>
</svg>
