<?xml version="1.0" encoding="utf-8"?>
<!-- Generator: Adobe Illustrator 25.2.1, SVG Export Plug-In . SVG Version: 6.00 Build 0)  -->
<svg version="1.1" id="Layer_1" xmlns="http://www.w3.org/2000/svg" xmlns:xlink="http://www.w3.org/1999/xlink" x="0px" y="0px"
	 viewBox="0 0 1080 1080" style="enable-background:new 0 0 1080 1080;" xml:space="preserve">
<style type="text/css">
	.st0{fill:#819069;}
	.st1{fill:#96A782;}
	.st2{fill:#92CB23;}
	.st3{fill:#FED97D;}
	.st4{fill:#CBD4DA;}
	.st5{fill:#CAD4DB;}
	.st6{fill:#9BACB8;}
	.st7{fill:#CCD6DD;}
	.st8{fill:#E0BC73;}
	.st9{fill:#77604F;}
	.st10{fill:#CE7C7A;}
	.st11{fill:#EBBAA5;}
	.st12{fill:#DA9F81;}
	.st13{fill:#C66E4F;}
	.st14{fill:#636776;}
	.st15{fill:#80868E;}
	.st16{fill:#A3A8B2;}
	.st17{fill:#D0C4AF;}
	.st18{fill:none;stroke:#B2A38A;stroke-width:15.6118;stroke-miterlimit:10;}
	.st19{fill:none;stroke:#604939;stroke-width:20.8157;stroke-miterlimit:10;}
	.st20{fill:#F2F2F2;}
	.st21{fill:#DFBE84;}
	.st22{fill:#E8C997;}
	.st23{fill:none;stroke:#636776;stroke-width:10.9082;stroke-linecap:round;stroke-linejoin:round;stroke-miterlimit:10;}
	.st24{fill:#E8E3D9;}
	.st25{fill:#EFD08D;}
	.st26{fill:#75AECC;}
	.st27{fill:#FFFFFF;}
	.st28{fill:#B7ACAE;}
	.st29{fill:#E4E3E0;}
	.st30{fill:#C8C0C2;}
	.st31{fill:#656B8D;}
	.st32{fill:#CDA585;}
	.st33{fill:none;stroke:#636776;stroke-width:10.9081;stroke-linecap:round;stroke-linejoin:round;stroke-miterlimit:10;}
	.st34{fill:#D6B59C;}
	.st35{fill:#E29591;}
	.st36{fill:#E7ADAB;}
	.st37{fill:#907A68;}
	.st38{opacity:0.3;}
</style>
<g>
	<circle class="st3" cx="540" cy="540" r="260.46"/>
	<g>
		<circle class="st14" cx="441.23" cy="484.75" r="35.27"/>
		<circle class="st14" cx="638.77" cy="484.75" r="35.27"/>
		<path class="st14" d="M620.53,561.85c-2.7,18.09-12.17,34.75-26.37,47.8c-14.1,13.19-34.52,20.92-54.51,20.88
			c-9.95-0.46-20.13-1.67-29.42-5.63c-9.28-3.69-17.92-8.85-24.95-15.43c-14.15-13.02-23.72-29.56-26.61-47.61
			c-0.16-0.97,0.51-1.89,1.48-2.05c0.57-0.09,1.13,0.1,1.52,0.48l0.14,0.14c12.36,12.03,143.3,12.14,155.56,0.02l0.13-0.13
			c0.7-0.69,1.83-0.69,2.52,0.01C620.44,560.74,620.61,561.31,620.53,561.85z"/>
	</g>
</g>
</svg>
